M48
; DRILL file {KiCad 9.0.0} date 2025-04-29T11:21:08+0530
; FORMAT={-:-/ absolute / metric / decimal}
; #@! TF.CreationDate,2025-04-29T11:21:08+05:30
; #@! TF.GenerationSoftware,Kicad,Pcbnew,9.0.0
; #@! TF.FileFunction,Plated,1,2,PTH
FMAT,2
METRIC
; #@! TA.AperFunction,Plated,PTH,ComponentDrill
T1C0.200
; #@! TA.AperFunction,Plated,PTH,ViaDrill
T2C0.300
%
G90
G05
T1
X161.377Y-94.188
X161.377Y-95.712
X162.14Y-93.425
X162.14Y-94.95
X162.14Y-96.475
X162.903Y-94.188
X162.903Y-95.712
X163.665Y-93.425
X163.665Y-94.95
X163.665Y-96.475
X164.427Y-94.188
X164.427Y-95.712
T2
X124.5Y-136.5
X146.5Y-97.0
X154.0Y-114.5
X158.0Y-115.0
X159.0Y-91.0
X159.0Y-93.5
X161.0Y-111.0
X170.5Y-114.0
X172.0Y-109.5
X173.5Y-107.5
X173.5Y-107.5
X173.5Y-107.5
X174.0Y-101.0
X174.272Y-105.272
X176.25Y-135.25
X177.0Y-100.5
X177.0Y-109.0
X177.5Y-105.0
X177.5Y-107.5
X177.5Y-114.0
X208.0Y-107.5
X220.0Y-99.5
M30
